<svg xmlns="http://www.w3.org/2000/svg" viewBox="0 0 100 100" fill="#fff" preserveAspectRatio="xMidYMid meet">
    <g xmlns:i="http://ns.adobe.com/AdobeIllustrator/10.0/" i:extraneous="self">
      <path d="M16.582 21.299-.085 62.714l32.939 13.295zm83.333 41.415L66.976 76.009l16.272-54.71zm-48.998 5.403L62.443 56.59H37.386l11.527 11.526v5.905l-3.063 3.32 1.474 1.36 2.591-2.808 2.589 2.807 1.475-1.358-3.062-3.32zm16.059-26.702a7.193 7.193 0 1 1 0-14.386 7.193 7.193 0 0 1 0 14.386m2.506-11.732a1.338 1.338 0 1 0 .001 2.675 1.338 1.338 0 0 0-.001-2.675zM32.854 41.415a7.192 7.192 0 0 1-7.193-7.193 7.192 7.192 0 1 1 14.385 0 7.192 7.192 0 0 1-7.192 7.193m2.506-11.732a1.338 1.338 0 1 0 .001 2.675 1.338 1.338 0 0 0-.001-2.675z"/>
    </g>
</svg>